<svg width="90.25250091552734px" height="126.59000549316406px" xmlns="http://www.w3.org/2000/svg" viewBox="204.87374954223634 11.704997253417972 90.25250091552734 126.59000549316406" style="background: rgba(0, 0, 0, 0);" preserveAspectRatio="xMidYMid"><defs><filter id="editing-extrude-glow"><feFlood flood-color="#333333" result="flood-1"></feFlood><feMorphology operator="erode" radius="1" in="SourceAlpha" result="erode"></feMorphology><feComposite operator="in" in="flood-1" in2="erode" result="comp1"></feComposite><feConvolveMatrix order="3,3" divisor="1" in="comp1" result="convolve" kernelMatrix="0 0 0 1 1 1 0 0 0"></feConvolveMatrix><feOffset dx="-3" dy="0" in="convolve" result="extrude"></feOffset><feComposite operator="in" in="flood-1" in2="extrude" result="comp-extrude"></feComposite><feFlood flood-color="#000000" result="flood-2"></feFlood><feComposite operator="in" in="flood-2" in2="SourceAlpha" result="comp2"></feComposite><feMorphology operator="dilate" radius="1" in="comp2" result="dilate"></feMorphology><feOffset dx="-4.5" dy="0" in="dilate" result="offset"></feOffset><feGaussianBlur in="offset" stdDeviation="5.8" result="blur"></feGaussianBlur><feComponentTransfer in="blur" result="shadow"><feFuncA type="linear" slope="0.8" intercept="-0.2"></feFuncA></feComponentTransfer><feMerge><feMergeNode in="shadow"></feMergeNode><feMergeNode in="comp-extrude"></feMergeNode><feMergeNode in="SourceGraphic"></feMergeNode></feMerge></filter></defs><g filter="url(#editing-extrude-glow)"><g transform="translate(225.00499939918518, 98.55000114440918)"><path d="M13.57-27.01L13.57-27.01L13.89-5.95L13.89-5.95Q13.89-2.88 13.82-2.05L13.82-2.05L13.82-2.05Q13.76-0.51 11.26 0.22L11.26 0.22L11.26 0.22Q8.77 0.96 6.85 0.96L6.85 0.96L6.85 0.96Q4.93 0.96 4.93 0L4.93 0L4.93 0Q4.93-0.51 5.25-3.46L5.25-3.46L5.25-3.46Q6.40-12.67 6.40-23.62L6.40-23.62L6.14-33.41L6.14-33.41Q5.76-36.74 2.62-36.74L2.62-36.74L1.34-36.61L1.34-36.61Q0.26-36.61 0.26-37.31L0.26-37.31L0.26-37.31Q0.26-38.91 5.60-42.50L5.60-42.50L5.60-42.50Q10.94-46.08 13.12-46.08L13.12-46.08L13.12-46.08Q14.14-46.08 14.14-44.77L14.14-44.77L14.14-44.77Q14.14-43.46 13.86-37.95L13.86-37.95L13.86-37.95Q13.57-32.45 13.57-27.01ZM41.28-22.43L41.28-22.43L41.28-22.43Q41.28-41.54 34.53-41.54L34.53-41.54L34.53-41.54Q27.78-41.54 27.78-22.43L27.78-22.43L27.78-22.43Q27.78-3.33 34.53-3.33L34.53-3.33L34.53-3.33Q41.28-3.33 41.28-22.43ZM44.35-2.66L44.35-2.66L44.35-2.66Q42.75-0.90 40.26 0.06L40.26 0.06L40.26 0.06Q37.76 1.02 34.21 1.02L34.21 1.02L34.21 1.02Q30.66 1.02 27.78-0.35L27.78-0.35L27.78-0.35Q24.90-1.73 23.33-3.81L23.33-3.81L23.33-3.81Q21.76-5.89 20.80-9.02L20.80-9.02L20.80-9.02Q19.84-12.16 19.58-14.98L19.58-14.98L19.58-14.98Q19.33-17.79 19.33-21.60L19.33-21.60L19.33-21.60Q19.33-25.41 19.65-28.61L19.65-28.61L19.65-28.61Q19.97-31.81 20.93-35.17L20.93-35.17L20.93-35.17Q21.89-38.53 23.52-40.77L23.52-40.77L23.52-40.77Q25.15-43.01 27.97-44.45L27.97-44.45L27.97-44.45Q30.78-45.89 34.40-45.89L34.40-45.89L34.40-45.89Q38.02-45.89 40.64-44.80L40.64-44.80L40.64-44.80Q43.26-43.71 44.86-41.70L44.86-41.70L44.86-41.70Q46.46-39.68 47.49-37.50L47.49-37.50L47.49-37.50Q48.51-35.33 48.96-32.38L48.96-32.38L48.96-32.38Q49.73-27.39 49.73-23.46L49.73-23.46L49.73-23.46Q49.73-19.52 49.50-16.96L49.50-16.96L49.50-16.96Q49.28-14.40 48.74-11.55L48.74-11.55L48.74-11.55Q48.19-8.70 47.07-6.56L47.07-6.56L47.07-6.56Q45.95-4.42 44.35-2.66Z" fill="#fc6d6d"></path></g></g><style>text {
  font-size: 64px;
  font-family: Arial Black;
  dominant-baseline: central;
  text-anchor: middle;
}</style></svg>