<svg width="144.0574981689453px" height="208.18999633789062px" xmlns="http://www.w3.org/2000/svg" viewBox="177.97125091552735 -29.09499816894531 144.0574981689453 208.18999633789062" style="background: rgba(0, 0, 0, 0);" preserveAspectRatio="xMidYMid"><defs><filter id="editing-extrude-glow"><feFlood flood-color="#333333" result="flood-1"></feFlood><feMorphology operator="erode" radius="1" in="SourceAlpha" result="erode"></feMorphology><feComposite operator="in" in="flood-1" in2="erode" result="comp1"></feComposite><feConvolveMatrix order="3,3" divisor="1" in="comp1" result="convolve" kernelMatrix="0 0 0 1 1 1 0 0 0"></feConvolveMatrix><feOffset dx="-3" dy="0" in="convolve" result="extrude"></feOffset><feComposite operator="in" in="flood-1" in2="extrude" result="comp-extrude"></feComposite><feFlood flood-color="#000000" result="flood-2"></feFlood><feComposite operator="in" in="flood-2" in2="SourceAlpha" result="comp2"></feComposite><feMorphology operator="dilate" radius="1" in="comp2" result="dilate"></feMorphology><feOffset dx="-4.5" dy="0" in="dilate" result="offset"></feOffset><feGaussianBlur in="offset" stdDeviation="5.8" result="blur"></feGaussianBlur><feComponentTransfer in="blur" result="shadow"><feFuncA type="linear" slope="0.8" intercept="-0.2"></feFuncA></feComponentTransfer><feMerge><feMergeNode in="shadow"></feMergeNode><feMergeNode in="comp-extrude"></feMergeNode><feMergeNode in="SourceGraphic"></feMergeNode></feMerge></filter></defs><g filter="url(#editing-extrude-glow)"><g transform="translate(205.8749969303608, 116.58499908447266)"><path d="M23.96-47.69L23.96-47.69L24.52-10.51L24.52-10.51Q24.52-5.08 24.41-3.62L24.41-3.62L24.41-3.62Q24.30-0.90 19.89 0.40L19.89 0.40L19.89 0.40Q15.48 1.70 12.09 1.70L12.09 1.70L12.09 1.70Q8.70 1.70 8.70 0L8.70 0L8.70 0Q8.70-0.90 9.27-6.10L9.27-6.10L9.27-6.10Q11.30-22.37 11.30-41.70L11.30-41.70L10.85-58.99L10.85-58.99Q10.17-64.86 4.63-64.86L4.63-64.86L2.37-64.64L2.37-64.64Q0.45-64.64 0.45-65.88L0.45-65.88L0.45-65.88Q0.45-68.70 9.89-75.03L9.89-75.03L9.89-75.03Q19.32-81.36 23.16-81.36L23.16-81.36L23.16-81.36Q24.97-81.36 24.97-79.04L24.97-79.04L24.97-79.04Q24.97-76.73 24.46-67.01L24.46-67.01L24.46-67.01Q23.96-57.29 23.96-47.69ZM72.89-39.61L72.89-39.61L72.89-39.61Q72.89-73.34 60.96-73.34L60.96-73.34L60.96-73.34Q49.04-73.34 49.04-39.61L49.04-39.61L49.04-39.61Q49.04-5.88 60.96-5.88L60.96-5.88L60.96-5.88Q72.89-5.88 72.89-39.61ZM78.31-4.69L78.31-4.69L78.31-4.69Q75.48-1.58 71.08 0.11L71.08 0.11L71.08 0.11Q66.67 1.81 60.40 1.81L60.40 1.81L60.40 1.81Q54.13 1.81 49.04-0.62L49.04-0.62L49.04-0.62Q43.96-3.05 41.19-6.72L41.19-6.72L41.19-6.72Q38.42-10.40 36.73-15.93L36.73-15.93L36.73-15.93Q35.03-21.47 34.58-26.44L34.58-26.44L34.58-26.44Q34.13-31.41 34.13-38.14L34.13-38.14L34.13-38.14Q34.13-44.86 34.69-50.51L34.69-50.51L34.69-50.51Q35.26-56.16 36.95-62.09L36.95-62.09L36.95-62.09Q38.65-68.03 41.53-71.98L41.53-71.98L41.53-71.98Q44.41-75.94 49.38-78.48L49.38-78.48L49.38-78.48Q54.35-81.02 60.74-81.02L60.74-81.02L60.74-81.02Q67.12-81.02 71.75-79.10L71.75-79.10L71.75-79.10Q76.39-77.18 79.21-73.62L79.21-73.62L79.21-73.62Q82.04-70.06 83.85-66.22L83.85-66.22L83.85-66.22Q85.65-62.38 86.45-57.18L86.45-57.18L86.45-57.18Q87.80-48.36 87.80-41.41L87.80-41.41L87.80-41.41Q87.80-34.47 87.41-29.95L87.41-29.95L87.41-29.95Q87.01-25.43 86.05-20.40L86.05-20.40L86.05-20.40Q85.09-15.37 83.11-11.58L83.11-11.58L83.11-11.58Q81.13-7.80 78.31-4.69Z" fill="#1da1f2"></path></g></g><style>text {
  font-size: 64px;
  font-family: Arial Black;
  dominant-baseline: central;
  text-anchor: middle;
}</style></svg>