<svg xmlns="http://www.w3.org/2000/svg" enable-background="new 0 0 36 36" viewBox="0 0 36 36"><path fill="#EFEFEF" d="M26.982,3.914C20.066,4.043,15.25,0.549,11.917,0.612S1.621,2.721,1.908,18.052s9.744,17.404,13.41,17.336C32.482,35.067,39.229,3.685,26.982,3.914z"/><rect width="2" height="1" x="12.598" y="2.594" fill="#A4AFC1" transform="rotate(-45.001 13.598 3.094)"/><rect width="2" height="1" x="8.532" y="6.66" fill="#A4AFC1" transform="rotate(-45.001 9.532 7.16)"/><rect width="1" height="2" x="9.032" y="1.918" fill="#A4AFC1" transform="rotate(-45.001 9.532 2.918)"/><path fill="#A4AFC1" d="M26.8,31.169c-0.827,0-1.5-0.673-1.5-1.5s0.673-1.5,1.5-1.5s1.5,0.673,1.5,1.5S27.627,31.169,26.8,31.169z M26.8,29.169c-0.275,0-0.5,0.224-0.5,0.5s0.225,0.5,0.5,0.5s0.5-0.224,0.5-0.5S27.075,29.169,26.8,29.169z"/><path fill="#F3F3F1" d="M23.983,11.685l2.267,13.3l-7.171,3.985c-0.673,0.374-1.485,0.374-2.158,0L9.75,24.984l13.413-13.566C23.441,11.137,23.916,11.291,23.983,11.685z"/><path fill="#2FDF84" d="M18.441,9.588c-0.19-0.34-0.675-0.33-0.852,0.017l-1.113,2.182l-2.758-4.793C13.49,6.598,12.9,6.706,12.822,7.159L9.75,24.98l11.055-11.176L18.441,9.588z"/><path fill="#D5DBE1" d="M12,24.984l12.154-12.293l-0.172-1.006c-0.067-0.394-0.542-0.548-0.82-0.266L9.75,24.984l7.171,3.985c0.672,0.374,1.485,0.374,2.158,0l0.046-0.026L12,24.984z"/><path fill="#00B871" d="M18.726 11.787l.452-.885-.736-1.314c-.19-.34-.675-.33-.852.017l-.056.11L18.726 11.787zM14.781 8.842l-1.063-1.848C13.49 6.598 12.9 6.706 12.822 7.159L9.75 24.98l2.725-2.754L14.781 8.842z"/><path d="M10.489,25.108l-1.479-0.255l3.071-17.821c0.09-0.523,0.483-0.92,1.003-1.013c0.517-0.091,1.02,0.144,1.283,0.602l2.759,4.792l-1.301,0.748l-2.391-4.153L10.489,25.108z"/><path d="M18,30.001c-0.496,0-0.991-0.125-1.443-0.376L9.386,25.64c-0.205-0.114-0.345-0.317-0.378-0.55c-0.033-0.232,0.044-0.466,0.209-0.633L22.63,10.891c0.325-0.331,0.803-0.449,1.244-0.309c0.445,0.141,0.77,0.515,0.848,0.978l2.268,13.299c0.054,0.313-0.097,0.627-0.375,0.782l-7.171,3.985C18.991,29.876,18.496,30.001,18,30.001z M10.979,24.809l6.307,3.505c0.447,0.249,0.982,0.249,1.43,0l6.707-3.727l-2.093-12.27L10.979,24.809z"/><path d="M10.418,25.321L9.082,24.64l7.84-15.375c0.207-0.407,0.618-0.667,1.074-0.676c0.405-0.011,0.876,0.232,1.1,0.633l2.363,4.216l-1.309,0.733l-2.119-3.781L10.418,25.321z"/></svg>