<svg xmlns="http://www.w3.org/2000/svg" enable-background="new 0 0 36 36" viewBox="0 0 36 36"><path fill="#EFEFEF" d="M27.417,3.914c-6.915,0.129-11.732-3.365-15.064-3.302S2.057,2.721,2.344,18.052s9.744,17.404,13.41,17.336C32.917,35.067,39.665,3.685,27.417,3.914z"/><path fill="#A4AFC1" d="M26.9,14.609c-0.827,0-1.5-0.673-1.5-1.5s0.673-1.5,1.5-1.5s1.5,0.673,1.5,1.5S27.728,14.609,26.9,14.609z M26.9,12.609c-0.276,0-0.5,0.224-0.5,0.5s0.224,0.5,0.5,0.5s0.5-0.224,0.5-0.5S27.176,12.609,26.9,12.609z"/><rect width="1" height="2" x="8.875" y="23.19" fill="#A4AFC1"/><rect width="1" height="2" x="8.875" y="28.94" fill="#A4AFC1"/><rect width="2" height="1" x="5.375" y="26.44" fill="#A4AFC1"/><rect width="2" height="1" x="11.125" y="26.44" fill="#A4AFC1"/><polygon fill="#2FDF84" points="20.411 17.13 20.41 17.13 14.406 23.184 20.409 29.25 27.25 29.25 21.256 23.186 27.25 17.13"/><polygon fill="#F3F3F1" points="12.683 21.469 27.235 6.761 20.409 6.761 20.397 6.75 9.25 18"/><polygon fill="#00B871" points="22.66 17.13 22.661 17.13 20.411 17.13 20.41 17.13 14.406 23.184 20.409 29.25 22.659 29.25 16.656 23.184"/><polygon fill="#D5DBE1" points="11.5 18 22.636 6.761 20.409 6.761 20.397 6.75 9.25 18 12.683 21.469 13.808 20.332"/><path d="M27.25 30h-6.841c-.2 0-.392-.08-.533-.223l-6.003-6.066c-.29-.292-.289-.763 0-1.056l6.004-6.054c.141-.142.333-.223.534-.223h6.839c.303 0 .576.182.692.461.116.279.054.602-.159.816l-5.472 5.53 5.472 5.536c.213.215.275.537.159.816C27.826 29.818 27.553 30 27.25 30zM20.722 28.5h4.732l-4.731-4.787c-.289-.292-.289-.763 0-1.055l4.729-4.779h-4.729l-5.262 5.305L20.722 28.5zM12.683 22.219c-.2 0-.392-.08-.533-.223l-3.433-3.469c-.289-.292-.289-.763 0-1.055l11.147-11.25c.18-.181.428-.25.663-.211h6.708c.303 0 .576.182.692.461.116.279.054.602-.159.816L13.216 21.997C13.075 22.139 12.883 22.219 12.683 22.219zM10.306 18.001l2.377 2.402L25.438 7.511h-4.74L10.306 18.001z"/></svg>