<svg width="240.91502685546874px" height="126.59000549316406px" xmlns="http://www.w3.org/2000/svg" viewBox="129.54248657226563 11.704997253417972 240.91502685546874 126.59000549316406" style="background: rgba(0, 0, 0, 0);" preserveAspectRatio="xMidYMid"><defs><filter id="editing-extrude-glow"><feFlood flood-color="#333333" result="flood-1"></feFlood><feMorphology operator="erode" radius="1" in="SourceAlpha" result="erode"></feMorphology><feComposite operator="in" in="flood-1" in2="erode" result="comp1"></feComposite><feConvolveMatrix order="3,3" divisor="1" in="comp1" result="convolve" kernelMatrix="0 0 0 1 1 1 0 0 0"></feConvolveMatrix><feOffset dx="-3" dy="0" in="convolve" result="extrude"></feOffset><feComposite operator="in" in="flood-1" in2="extrude" result="comp-extrude"></feComposite><feFlood flood-color="#000000" result="flood-2"></feFlood><feComposite operator="in" in="flood-2" in2="SourceAlpha" result="comp2"></feComposite><feMorphology operator="dilate" radius="1" in="comp2" result="dilate"></feMorphology><feOffset dx="-4.5" dy="0" in="dilate" result="offset"></feOffset><feGaussianBlur in="offset" stdDeviation="5.8" result="blur"></feGaussianBlur><feComponentTransfer in="blur" result="shadow"><feFuncA type="linear" slope="0.8" intercept="-0.2"></feFuncA></feComponentTransfer><feMerge><feMergeNode in="shadow"></feMergeNode><feMergeNode in="comp-extrude"></feMergeNode><feMergeNode in="SourceGraphic"></feMergeNode></feMerge></filter></defs><g filter="url(#editing-extrude-glow)"><g transform="translate(168.78500175476074, 98.71000099182129)"><path d="M21.76-22.02L21.44-17.15L21.70-14.91L21.70-14.91Q21.70-13.70 19.39-13.70L19.39-13.70L19.39-13.70Q14.72-13.70 14.72-17.22L14.72-17.22L14.72-17.22Q14.72-18.05 15.17-19.52L15.17-19.52L15.17-19.52Q15.62-20.99 15.62-22.08L15.62-22.08L15.62-22.08Q15.62-23.17 14.98-23.97L14.98-23.97L14.98-23.97Q14.34-24.77 13.12-24.77L13.12-24.77L13.12-24.77Q11.90-24.77 11.04-23.90L11.04-23.90L11.04-23.90Q10.18-23.04 9.98-22.14L9.98-22.14L9.73-21.25L9.73-21.25Q9.34-19.26 9.34-14.62L9.34-14.62L9.34-14.62Q9.34-9.98 9.47-7.33L9.47-7.33L9.47-7.33Q9.60-4.67 9.73-3.68L9.73-3.68L9.73-3.68Q9.86-2.69 9.86-2.50L9.86-2.50L9.86-2.50Q9.86-0.90 7.87 0.10L7.87 0.10L7.87 0.10Q5.89 1.09 3.90 1.09L3.90 1.09L3.90 1.09Q1.92 1.09 1.92 0.26L1.92 0.26L2.24-1.73L2.24-1.73Q3.14-7.30 3.14-16.26L3.14-16.26L3.14-16.26Q3.14-25.22 2.50-28.42L2.50-28.42L2.50-28.42Q2.50-29.18 3.84-29.18L3.84-29.18L3.84-29.18Q7.30-29.18 8.45-26.82L8.45-26.82L8.45-26.82Q8.51-26.56 8.67-26.56L8.67-26.56L8.67-26.56Q8.83-26.56 9.54-27.14L9.54-27.14L9.54-27.14Q11.65-28.86 14.53-28.86L14.53-28.86L14.53-28.86Q16.32-28.86 18.11-28.16L18.11-28.16L18.11-28.16Q21.76-26.69 21.76-22.02L21.76-22.02ZM47.30-28.48L47.30-28.48L47.30-28.48Q46.14-21.57 46.14-10.88L46.14-10.88L46.14-10.88Q46.14-3.01 46.78-0.51L46.78-0.51L47.04 0.32L47.04 0.32Q47.04 1.15 45.63 1.15L45.63 1.15L45.63 1.15Q40.70 1.15 40-1.60L40-1.60L40-1.60Q39.94-1.92 39.71-1.92L39.71-1.92L39.71-1.92Q39.49-1.92 39.30-1.66L39.30-1.66L39.30-1.66Q37.31 0.96 33.15 0.96L33.15 0.96L33.15 0.96Q30.85 0.96 28.35-0.19L28.35-0.19L28.35-0.19Q26.82-0.90 25.86-2.66L25.86-2.66L25.86-2.66Q24.90-4.42 24.90-6.98L24.90-6.98L25.86-20.99L25.86-20.99Q25.86-25.41 24.96-27.26L24.96-27.26L24.96-27.26Q24.64-27.97 24.64-28.16L24.64-28.16L24.64-28.16Q24.64-28.54 24.96-28.67L24.96-28.67L24.96-28.67Q25.98-28.99 27.58-28.99L27.58-28.99L27.58-28.99Q33.79-28.99 33.79-23.87L33.79-23.87L33.79-23.87Q33.79-22.27 32.48-16.58L32.48-16.58L32.48-16.58Q31.17-10.88 31.17-8.48L31.17-8.48L31.17-8.48Q31.17-6.08 32.22-4.80L32.22-4.80L32.22-4.80Q33.28-3.52 35.17-3.52L35.17-3.52L35.17-3.52Q37.06-3.52 38.14-4.86L38.14-4.86L38.14-4.86Q39.23-6.21 39.42-7.55L39.42-7.55L39.62-8.90L39.62-8.90Q39.87-11.14 39.87-16.77L39.87-16.77L39.87-16.77Q39.87-22.40 39.52-23.90L39.52-23.90L39.52-23.90Q39.17-25.41 39.17-25.79L39.17-25.79L39.17-25.79Q39.17-27.39 41.73-28.32L41.73-28.32L41.73-28.32Q44.29-29.25 46.34-29.25L46.34-29.25L46.34-29.25Q47.30-29.25 47.30-28.48ZM69.82-8.77L69.82-8.77L69.82-8.77Q69.82-6.02 68.77-3.97L68.77-3.97L68.77-3.97Q67.71-1.92 66.37-0.96L66.37-0.96L66.37-0.96Q65.02 0 63.17 0.58L63.17 0.58L63.17 0.58Q60.74 1.34 58.75 1.34L58.75 1.34L58.75 1.34Q54.59 1.34 51.84-0.29L51.84-0.29L51.84-0.29Q49.09-1.92 49.09-5.50L49.09-5.50L49.09-5.50Q49.09-7.62 50.24-8.96L50.24-8.96L50.24-8.96Q52.03-10.94 54.53-10.94L54.53-10.94L54.53-10.94Q55.30-10.94 55.30-10.24L55.30-10.24L55.30-10.24Q55.30-10.18 55.01-9.25L55.01-9.25L55.01-9.25Q54.72-8.32 54.72-6.91L54.72-6.91L54.72-6.91Q54.72-5.50 55.84-4.42L55.84-4.42L55.84-4.42Q56.96-3.33 58.56-3.33L58.56-3.33L58.56-3.33Q60.16-3.33 61.12-3.87L61.12-3.87L61.12-3.87Q62.08-4.42 62.46-5.25L62.46-5.25L62.46-5.25Q63.04-6.40 63.04-7.42L63.04-7.42L63.04-7.42Q63.04-9.28 61.18-10.62L61.18-10.62L61.18-10.62Q59.33-11.97 57.09-12.74L57.09-12.74L57.09-12.74Q54.85-13.50 52.99-15.30L52.99-15.30L52.99-15.30Q51.14-17.09 51.14-19.78L51.14-19.78L51.14-19.78Q51.14-24.38 54.05-26.69L54.05-26.69L54.05-26.69Q56.96-28.99 61.95-28.99L61.95-28.99L61.95-28.99Q64.13-28.99 66.53-28.38L66.53-28.38L66.53-28.38Q68.93-27.78 68.93-26.34L68.93-26.34L68.93-26.34Q68.93-24.90 68.45-23.68L68.45-23.68L68.45-23.68Q67.97-22.46 67.26-22.46L67.26-22.46L67.26-22.46Q66.88-22.46 66.75-22.75L66.75-22.75L66.75-22.75Q66.62-23.04 66.30-23.42L66.30-23.42L66.30-23.42Q65.98-23.81 64.77-24.42L64.77-24.42L64.77-24.42Q63.55-25.02 62.69-25.02L62.69-25.02L62.69-25.02Q61.82-25.02 61.54-24.99L61.54-24.99L61.54-24.99Q61.25-24.96 60.54-24.80L60.54-24.80L60.54-24.80Q59.84-24.64 59.26-24.32L59.26-24.32L59.26-24.32Q57.79-23.49 57.79-21.89L57.79-21.89L57.79-21.89Q57.79-20.86 58.24-20.38L58.24-20.38L58.24-20.38Q58.69-19.90 58.94-19.65L58.94-19.65L58.94-19.65Q59.20-19.39 59.84-19.04L59.84-19.04L59.84-19.04Q60.48-18.69 60.74-18.56L60.74-18.56L60.74-18.56Q60.99-18.43 61.89-18.02L61.89-18.02L61.89-18.02Q62.78-17.60 63.04-17.47L63.04-17.47L63.04-17.47Q69.82-14.27 69.82-8.77ZM80.64-34.37L80.64-34.37L80.58-28.16L80.58-28.16Q80.58-27.78 80.83-27.78L80.83-27.78L80.83-27.78Q81.09-27.78 81.34-27.97L81.34-27.97L81.34-27.97Q82.94-29.06 86.40-29.06L86.40-29.06L86.40-29.06Q92.22-29.06 94.46-25.09L94.46-25.09L94.46-25.09Q95.30-23.62 95.30-21.18L95.30-21.18L95.30-21.18Q95.30-18.75 95.01-14.46L95.01-14.46L95.01-14.46Q94.72-10.18 94.72-8.38L94.72-8.38L94.72-8.38Q94.72-2.11 96.51-0.06L96.51-0.06L96.51-0.06Q96.83 0.26 96.83 0.58L96.83 0.58L96.83 0.58Q96.83 1.22 94.08 1.22L94.08 1.22L94.08 1.22Q86.66 1.22 86.66-5.70L86.66-5.70L86.66-5.70Q86.66-8.38 87.94-13.25L87.94-13.25L87.94-13.25Q89.22-18.11 89.22-20.42L89.22-20.42L89.22-20.42Q89.22-22.72 88.13-23.97L88.13-23.97L88.13-23.97Q87.04-25.22 85.12-25.22L85.12-25.22L85.12-25.22Q83.20-25.22 82.08-24.38L82.08-24.38L82.08-24.38Q80.96-23.55 80.70-22.66L80.70-22.66L80.51-21.82L80.51-21.82Q80.45-20.61 80.45-14.08L80.45-14.08L80.45-14.08Q80.45-7.55 80.77-5.60L80.77-5.60L80.77-5.60Q81.09-3.65 81.09-3.39L81.09-3.39L81.09-3.39Q81.09-1.54 78.59-0.10L78.59-0.10L78.59-0.10Q76.10 1.34 73.66 1.34L73.66 1.34L73.66 1.34Q72.77 1.34 72.77 0.32L72.77 0.32L72.90-0.90L72.90-0.90Q74.30-11.65 74.30-24.19L74.30-24.19L74.30-24.19Q74.30-29.06 73.92-34.05L73.92-34.05L73.86-35.46L73.86-35.46Q73.73-37.25 73.12-38.53L73.12-38.53L73.12-38.53Q72.51-39.81 72-40.19L72-40.19L71.42-40.51L71.42-40.51Q70.98-40.77 70.98-41.09L70.98-41.09L70.98-41.09Q70.98-41.98 73.98-43.30L73.98-43.30L73.98-43.30Q76.99-44.61 78.62-44.61L78.62-44.61L78.62-44.61Q80.26-44.61 80.38-43.90L80.38-43.90L80.38-43.90Q80.64-40.64 80.64-34.37ZM104.19 0.06L104.19 0.06L102.66 0.13L102.66 0.13Q101.12 0.13 100.61-0.51L100.61-0.51L100.61-0.51Q100.10-1.15 100.06-2.91L100.06-2.91L100.06-2.91Q100.03-4.67 100.86-5.44L100.86-5.44L100.86-5.44Q101.70-6.21 103.68-6.21L103.68-6.21L103.68-6.21Q105.66-6.21 106.59-5.47L106.59-5.47L106.59-5.47Q107.52-4.74 107.52-3.07L107.52-3.07L107.52-3.07Q107.52 1.09 106.69 1.09L106.69 1.09L106.37 0.90L106.37 0.90Q105.92 0.06 104.19 0.06ZM124.35-27.01L124.35-27.01L124.67-5.95L124.67-5.95Q124.67-2.88 124.61-2.05L124.61-2.05L124.61-2.05Q124.54-0.51 122.05 0.22L122.05 0.22L122.05 0.22Q119.55 0.96 117.63 0.96L117.63 0.96L117.63 0.96Q115.71 0.96 115.71 0L115.71 0L115.71 0Q115.71-0.51 116.03-3.46L116.03-3.46L116.03-3.46Q117.18-12.67 117.18-23.62L117.18-23.62L116.93-33.41L116.93-33.41Q116.54-36.74 113.41-36.74L113.41-36.74L112.13-36.61L112.13-36.61Q111.04-36.61 111.04-37.31L111.04-37.31L111.04-37.31Q111.04-38.91 116.38-42.50L116.38-42.50L116.38-42.50Q121.73-46.08 123.90-46.08L123.90-46.08L123.90-46.08Q124.93-46.08 124.93-44.77L124.93-44.77L124.93-44.77Q124.93-43.46 124.64-37.95L124.64-37.95L124.64-37.95Q124.35-32.45 124.35-27.01ZM152.06-22.43L152.06-22.43L152.06-22.43Q152.06-41.54 145.31-41.54L145.31-41.54L145.31-41.54Q138.56-41.54 138.56-22.43L138.56-22.43L138.56-22.43Q138.56-3.33 145.31-3.33L145.31-3.33L145.31-3.33Q152.06-3.33 152.06-22.43ZM155.14-2.66L155.14-2.66L155.14-2.66Q153.54-0.90 151.04 0.06L151.04 0.06L151.04 0.06Q148.54 1.02 144.99 1.02L144.99 1.02L144.99 1.02Q141.44 1.02 138.56-0.35L138.56-0.35L138.56-0.35Q135.68-1.73 134.11-3.81L134.11-3.81L134.11-3.81Q132.54-5.89 131.58-9.02L131.58-9.02L131.58-9.02Q130.62-12.16 130.37-14.98L130.37-14.98L130.37-14.98Q130.11-17.79 130.11-21.60L130.11-21.60L130.11-21.60Q130.11-25.41 130.43-28.61L130.43-28.61L130.43-28.61Q130.75-31.81 131.71-35.17L131.71-35.17L131.71-35.17Q132.67-38.53 134.30-40.77L134.30-40.77L134.30-40.77Q135.94-43.01 138.75-44.45L138.75-44.45L138.75-44.45Q141.57-45.89 145.18-45.89L145.18-45.89L145.18-45.89Q148.80-45.89 151.42-44.80L151.42-44.80L151.42-44.80Q154.05-43.71 155.65-41.70L155.65-41.70L155.65-41.70Q157.25-39.68 158.27-37.50L158.27-37.50L158.27-37.50Q159.30-35.33 159.74-32.38L159.74-32.38L159.74-32.38Q160.51-27.39 160.51-23.46L160.51-23.46L160.51-23.46Q160.51-19.52 160.29-16.96L160.29-16.96L160.29-16.96Q160.06-14.40 159.52-11.55L159.52-11.55L159.52-11.55Q158.98-8.70 157.86-6.56L157.86-6.56L157.86-6.56Q156.74-4.42 155.14-2.66Z" fill="#1da1f2"></path></g></g><style>text {
  font-size: 64px;
  font-family: Arial Black;
  dominant-baseline: central;
  text-anchor: middle;
}</style></svg>