<svg width="115.951" height="110.401" viewBox="0 0 115.951 110.401" xmlns="http://www.w3.org/2000/svg">
	<g id="svgGroup" stroke-linecap="round" fill-rule="evenodd" font-size="9pt" stroke="#000" stroke-width="0.25mm" fill="none" style="stroke:#000;stroke-width:0.25mm;fill:none">
		<path d="M 31.201 44.701 L 31.951 94.051 A 558.195 558.195 0 0 1 31.945 96.566 Q 31.923 101.428 31.81 103.077 A 15.594 15.594 0 0 1 31.801 103.201 Q 31.651 106.801 25.801 108.526 A 49.471 49.471 0 0 1 21.603 109.577 Q 19.359 110.03 17.353 110.178 A 25.771 25.771 0 0 1 15.451 110.251 A 13.514 13.514 0 0 1 13.95 110.175 Q 12.444 110.006 11.694 109.458 A 1.714 1.714 0 0 1 10.951 108.001 Q 10.951 106.976 11.498 101.792 A 615.746 615.746 0 0 1 11.701 99.901 A 343.192 343.192 0 0 0 13.884 74.319 A 438.881 438.881 0 0 0 14.401 52.651 L 13.801 29.701 A 12.417 12.417 0 0 0 13.025 26.473 Q 11.178 21.901 5.551 21.901 L 2.551 22.201 Q 0.758 22.201 0.225 21.385 A 1.493 1.493 0 0 1 0.001 20.551 A 4.007 4.007 0 0 1 0.689 18.537 Q 2.395 15.725 8.331 11.342 A 113.804 113.804 0 0 1 12.526 8.401 A 125.124 125.124 0 0 1 17.65 5.128 Q 25.08 0.654 29.061 0.084 A 7.707 7.707 0 0 1 30.151 0.001 A 2.632 2.632 0 0 1 31.229 0.205 Q 32.35 0.704 32.52 2.422 A 6.642 6.642 0 0 1 32.551 3.076 A 60.695 60.695 0 0 1 32.527 4.574 Q 32.424 8.569 31.876 19.051 Q 31.201 31.951 31.201 44.701 Z" id="0" vector-effect="non-scaling-stroke"/>
		<path d="M 96.544 106.908 A 23.579 23.579 0 0 0 103.351 101.776 Q 107.101 97.651 109.726 92.626 Q 112.351 87.601 113.626 80.926 A 141.61 141.61 0 0 0 114.476 76.014 A 118.179 118.179 0 0 0 115.426 68.251 Q 115.77 64.313 115.889 58.987 A 268.974 268.974 0 0 0 115.951 53.026 Q 115.951 43.801 114.151 32.101 Q 113.642 28.758 112.817 25.839 A 37.264 37.264 0 0 0 110.701 20.101 A 46.486 46.486 0 0 0 109.918 18.516 A 50.951 50.951 0 0 0 104.551 10.276 A 22.523 22.523 0 0 0 100.959 6.676 A 25.946 25.946 0 0 0 94.651 3.001 A 27.91 27.91 0 0 0 93.649 2.608 Q 90.544 1.458 86.88 0.921 A 47.304 47.304 0 0 0 80.026 0.451 A 38.752 38.752 0 0 0 75.159 0.748 A 30.698 30.698 0 0 0 64.951 3.826 A 34.242 34.242 0 0 0 61.367 5.934 A 27.191 27.191 0 0 0 54.526 12.451 A 30.534 30.534 0 0 0 53.996 13.202 Q 50.542 18.254 48.451 25.576 Q 46.201 33.451 45.451 40.951 Q 44.701 48.451 44.701 57.376 Q 44.701 66.301 45.301 72.901 A 61.112 61.112 0 0 0 46.142 78.819 A 76.369 76.369 0 0 0 48.151 86.851 Q 50.401 94.201 54.076 99.076 A 24.21 24.21 0 0 0 59.183 104.038 A 33.422 33.422 0 0 0 64.501 107.176 A 31.784 31.784 0 0 0 70.245 109.264 A 37.077 37.077 0 0 0 79.576 110.401 Q 87.901 110.401 93.751 108.151 A 29.155 29.155 0 0 0 96.544 106.908 Z M 87.129 13.337 A 9.75 9.75 0 0 0 80.326 10.651 A 10.773 10.773 0 0 0 70.995 16.433 Q 65.506 25.146 64.656 46.985 A 217.501 217.501 0 0 0 64.501 55.426 Q 64.501 89.232 73.522 97.514 A 9.75 9.75 0 0 0 80.326 100.201 A 10.773 10.773 0 0 0 89.656 94.418 Q 95.145 85.706 95.995 63.867 A 217.501 217.501 0 0 0 96.151 55.426 Q 96.151 21.619 87.129 13.337 Z" id="1" vector-effect="non-scaling-stroke"/>
	</g>
</svg>